# xmcd
#
# Track frame offsets:
#	150
#	18795
#	39861
#	59221
#	82530
#	103157
#	126328
#	156087
#	180149
#	192037
#	214778
#	236918
#	263974
#	283833
#	324908
#
# Disc length: 4764
#
# Revision: 1
# Processed by: cddbd v1.5.1PL0 Copyright (c) Steve Scherf et al.
# Submitted via: ExactAudioCopy v0.95a5
# Normalized: r0:TDELIM( - )
#
DISCID=c6129a0f
DTITLE=Various Artist - Hit Parade cd1of2
DYEAR=1900
DGENRE=Blues
TTITLE0=Gary Moore - Still Got the Blues
TTITLE1=John Lee Hooker - Chil Out
TTITLE2=Omar and The Howlers - Black Bottom
TTITLE3=Tony Joe White - Good in Blues
TTITLE4=Eric Clapton - Layla
TTITLE5=Glen Hughes - So Much Love to Give
TTITLE6=Gary Moore - Story of the Blues
TTITLE7=The Robert Gray Band - Never Mattered Much
TTITLE8=Taj Mahal - Mind Your Own Business
TTITLE9=Coco Montoya - Good Days, Bad Days
TTITLE10=Santana and Rob Thomas - Smooth
TTITLE11=Gary Moore - Naked Flame
TTITLE12=B.B.King and Eric Clapton - Worried Lite Blues
TTITLE13=S.R.Vaughan and Double Trouble - Tin Pin Aley
TTITLE14=Snowy White and The White Flames - Midnight Blues
EXTD=
EXTT0=
EXTT1=
EXTT2=
EXTT3=
EXTT4=
EXTT5=
EXTT6=
EXTT7=
EXTT8=
EXTT9=
EXTT10=
EXTT11=
EXTT12=
EXTT13=
EXTT14=
PLAYORDER=
